<svg width="263" height="232" viewBox="0 0 263 232" fill="none" xmlns="http://www.w3.org/2000/svg">
<path d="M3.56015 182.332C6.58679 186.687 9.65635 191.088 13.692 194.495C16.5555 196.925 20.3692 199.239 24.1758 199.657C29.4606 200.231 25.6369 194.555 24.7734 191.154C22.645 182.733 22.0448 173.838 23.6804 165.269C25.9208 153.68 32.4988 142.714 42.4919 136.481C44.4579 135.26 46.957 134.198 49.002 135.282C51.9489 136.835 51.4665 141.169 50.4935 144.375C44.8707 162.807 33.3997 186.846 46.4366 204.599C49.8976 209.312 54.3646 213.144 58.7887 216.93C62.8009 220.358 66.9664 223.883 72.0057 225.44C76.6457 226.865 81.6351 226.479 86.4673 226.085C90.9832 225.723 110.802 226.314 110.2 220.037C109.857 216.569 105.39 212.218 103.677 209.208C101.523 205.479 99.6227 201.603 97.9745 197.626C94.5972 189.465 92.2736 180.877 91.1051 172.114C90.7636 169.64 88.5157 147.516 90.9481 146.948C99.8379 144.84 109.863 149.687 113.752 157.984C115.788 162.34 116.204 167.233 116.805 171.998C119.234 191.535 123.736 217.663 142.392 228.379C144.96 229.847 147.721 231.008 150.621 231.589C157.716 232.966 164.993 230.674 171.622 227.788C176.899 225.474 191.313 220.521 191.974 213.668C192.308 210.141 189.03 206.903 187.189 204.248C184.268 200.056 181.555 195.716 179.074 191.25C176.05 185.812 169.871 179.963 174.411 173.396C176.284 170.704 179.39 169.151 182.478 168.002C183.805 167.497 186.539 166.198 187.757 167.155C188.91 168.064 189.572 171.952 190.097 173.329C191.688 177.575 193.324 181.822 195.236 185.947C198.999 194.035 203.969 201.793 211.417 206.909C212.291 207.513 213.255 208.097 214.31 208.167C216.374 208.304 218.025 206.573 219.419 205.055C224.57 199.441 232.213 197.526 239.001 194.105C243.027 192.074 254.57 185.91 262.491 184.346C199.768 142.599 114.126 150.983 50.1224 111.256C48.5675 110.284 47.0361 109.29 45.5271 108.298C37.8602 109.196 30.373 112.157 24.206 116.823C8.00915 129.075 1.91332 150.6 0.161348 170.04C-0.0476555 172.242 -0.146365 174.494 0.457982 176.62C1.0643 178.7 2.31223 180.516 3.56114 182.309L3.56015 182.332ZM138.517 154.035C144.079 162.655 146.432 175.216 149.494 184.92C149.632 185.355 149.77 185.812 149.682 186.26C149.515 186.997 148.798 187.439 148.13 187.793C145.066 189.438 141.281 191.097 138.322 189.295C137.204 188.614 136.396 187.54 135.656 186.469C130.427 178.969 126.706 170.432 124.804 161.479C123.047 153.3 133.38 145.999 138.541 154.014L138.517 154.035ZM69.6734 158.521C72.2026 166.013 71.7086 174.204 73.3716 181.951C74.5874 187.579 76.9214 192.85 79.2115 198.097C80.7037 201.526 85.2435 208.317 83.704 212.13C80.271 220.641 66.5947 210.802 64.5964 206.087C63.5352 203.603 63.7035 200.789 63.9108 198.114C64.8255 185.969 66.2118 173.846 68.0452 161.788C68.2353 160.533 68.5445 159.125 69.6724 158.544L69.6734 158.521Z" fill="#637155"/>
<path d="M67.3808 115.344C99.1262 130.277 134.523 134.791 168.779 142.254C203.035 149.695 238.011 159.199 262.489 184.391C264.067 184.845 261.514 175.841 261.228 174.158C260.791 171.792 260.468 169.408 260.145 167.025C258.92 157.493 258.288 147.784 255.293 138.602C254.974 137.663 254.634 136.7 254.015 135.95C251.215 132.576 246.881 134.955 243.831 136.263C238.673 138.447 233.206 139.444 228.161 142.13C223.14 144.794 217.448 148.376 212.214 146.111C208.306 144.425 206.307 139.71 206.852 135.492C207.397 131.274 210.058 127.557 213.261 124.789C217.752 120.905 223.498 118.657 229.37 118.152C232.486 117.885 235.65 118.094 238.7 118.817C241.551 119.486 244.259 121.367 246.958 121.893C246.633 117.501 244.567 112.783 243.153 108.613C241.519 103.779 239.473 98.6332 235.135 95.9575C233.929 95.2267 232.624 94.7172 231.319 94.2076C225.986 92.1644 222.784 90.7804 217.11 91.9035C212.116 92.8991 207.272 94.6009 202.738 96.9032C198.389 99.1235 194.306 101.92 190.674 105.21C188.8 106.909 187.031 108.771 185.415 110.729C184.417 111.948 182.603 115.861 181.317 116.458C179.888 118.764 177.581 121.594 175.11 120.491C174.293 120.139 173.74 119.392 173.186 118.69C170.377 115.022 167.397 110.624 168.538 106.162C169.622 101.969 173.868 99.5407 177.733 97.5922C187.651 92.5742 197.567 87.5788 207.485 82.5608C209.694 81.4409 212.682 80.5137 214.618 78.9529C217.043 77.0078 215.986 76.4867 214.421 73.6866C211.709 68.8269 208.997 63.9673 206.284 59.1301C203.863 54.825 200.943 50.0914 196.132 48.9516C190.343 47.5649 181.81 51.2907 176.535 53.5825C170.021 56.4057 163.977 60.3104 158.642 64.9913C153.447 69.5657 148.915 74.9143 145.281 80.822C143.464 83.7646 141.889 86.8534 140.557 90.0432C140.154 91.0181 137.742 99.8461 137.357 99.9191C130.871 101.074 125.628 93.3933 126.521 86.8669C127.415 80.3404 132.211 75.1164 136.762 70.3553C148.905 57.6744 161.467 44.6963 177.506 37.5823C173.376 33.246 168.729 29.4057 163.72 26.1359C161.663 24.803 159.469 23.5317 157.028 23.2648C154.902 23.0119 152.763 23.5483 150.691 24.1101C143.542 26.0249 136.352 28.3666 130.464 32.8423C110.913 47.6972 113.19 78.9156 97.1645 97.5157C92.8904 96.4675 90.7164 91.6544 90.0301 87.2913C88.3266 76.3616 92.209 65.2977 97.3395 55.5305C106.127 38.8187 118.761 24.1741 134.007 13.0984C122.197 9.4347 110.41 5.77204 98.6008 2.10838C95.715 1.21236 92.8069 0.31532 89.8027 0.0683921C82.3142 -0.536665 75.1626 2.9801 68.4436 6.38079C62.6211 9.34764 56.6589 12.4211 52.4572 17.4234C47.7338 23.0343 45.7669 30.4379 44.0363 37.5814C40.8178 50.954 37.9183 64.7471 39.682 78.4098C40.8231 87.2835 43.8947 95.747 47.1284 104.105C53.6271 108.299 60.3681 112.097 67.3788 115.389L67.3808 115.344ZM136.819 117.834C136.851 116.594 137.419 115.446 138.007 114.344C139.919 110.752 146.536 96.8539 151.584 98.2075C156.543 99.5345 153.505 116.503 153.32 120.714C153.285 121.525 153.246 122.403 152.767 123.059C152.383 123.606 151.739 123.938 151.14 124.25C148.816 125.432 146.513 126.638 144.189 127.821C143.798 128.006 143.406 128.215 142.98 128.196C142.396 128.169 141.945 127.675 141.56 127.23C139.956 125.308 138.611 123.149 137.609 120.848C137.179 119.881 136.818 118.872 136.842 117.813L136.819 117.834ZM69.3248 61.2299C70.744 58.1116 72.4062 55.0944 73.5598 51.8741C74.1494 50.2306 74.6081 48.491 75.5276 47.0202C78.6464 42.0824 88.0644 40.2463 87.3098 48.2231C86.5602 56.0873 82.473 64.6374 80.1622 72.1837C78.6387 77.1702 77.0908 82.2008 76.7729 87.399C76.524 91.5398 77.0375 95.7373 76.3853 99.8375C76.2903 100.465 76.126 101.135 75.6152 101.495C75.1053 101.834 74.4561 101.76 73.8527 101.665C71.5731 101.315 69.3198 100.876 67.0705 100.347C66.1353 100.125 65.1336 99.8767 64.4905 99.1485C63.8035 98.3958 63.6264 97.3048 63.537 96.2628C62.3271 84.3398 64.3715 72.0881 69.3483 61.2084L69.3248 61.2299ZM44.9068 73.6788C44.8829 70.6315 46.4402 62.3069 51.4232 65.1468C54.6727 66.9842 55.1046 76.6387 55.8822 79.9453C56.6188 83.1598 57.3739 86.4654 56.894 89.7158C56.7627 90.6577 56.4478 91.6816 55.6372 92.2096C55.1508 92.5263 54.562 92.6128 53.9967 92.6779C52.4119 92.9005 50.627 93.069 49.3416 92.1091C48.5569 91.5325 48.0789 90.6311 47.6673 89.7553C45.4113 84.758 44.9599 79.1418 44.9293 73.6798L44.9068 73.6788Z" fill="#637155"/>
</svg>
