<svg width="284" height="204" viewBox="0 0 284 204" fill="none" xmlns="http://www.w3.org/2000/svg">
<path d="M17.2429 34.8812C18.8174 37.4036 20.1487 40.085 21.7086 42.6136C23.2132 45.0543 24.9835 47.3078 26.7989 49.505C30.5558 54.0313 34.2677 58.6139 38.0022 63.1684C41.6813 67.635 45.4551 72.08 48.8899 76.7433C52.2143 81.2309 55.1693 85.9869 58.2201 90.6837C61.2912 95.4275 64.4861 100.137 68.1854 104.41C69.9195 106.419 71.4386 108.612 73.4327 110.381C75.4268 112.149 77.6549 113.577 79.7616 115.205C81.9246 116.883 83.8783 118.799 85.9512 120.59C87.9678 122.33 89.9126 124.305 92.1407 125.733C94.3971 127.186 96.8682 128.213 99.1628 129.594C101.436 130.966 103.626 132.466 105.808 133.987C110.187 137.024 114.562 140.174 119.409 142.289C124.241 144.409 128.95 147.009 133.894 148.785C138.837 150.561 143.878 151.962 148.788 153.863C151.29 154.841 153.495 156.056 155.796 157.49C157.969 158.83 160.253 159.826 162.341 161.331C170.427 167.134 178.274 173.707 187.067 178.3C191.567 180.655 196.31 181.848 201.108 183.166C203.826 183.922 206.559 184.634 209.317 185.242C211.845 185.8 214.26 186.778 216.765 187.401C219.233 188.021 221.754 188.081 224.235 188.529C226.946 189.028 229.629 189.743 232.328 190.377C234.855 190.972 237.376 191.552 239.944 191.721C242.347 191.869 244.735 191.781 247.123 191.693C249.598 191.606 252.095 191.769 254.564 191.628C256.946 191.487 259.225 190.945 261.571 190.559C264.273 190.115 267.013 189.841 269.722 189.412C272.126 189.04 274.506 188.492 276.915 188.172C278.962 187.896 281.176 187.807 282.984 186.779C284.014 186.192 283.228 184.374 282.199 184.96C280.317 186.02 278.034 185.989 275.942 186.322C273.473 186.704 271.036 187.239 268.561 187.605C265.925 188.002 263.25 188.268 260.626 188.734C258.264 189.163 255.922 189.677 253.499 189.724C251.148 189.777 248.787 189.687 246.42 189.784C243.931 189.878 241.441 189.971 238.94 189.717C233.773 189.187 228.739 187.282 223.601 186.498C220.981 186.09 218.346 185.968 215.767 185.172C213.389 184.439 211.046 183.709 208.619 183.145C205.948 182.537 203.294 181.81 200.641 181.082C198.081 180.371 195.475 179.753 192.957 178.857C188.486 177.251 184.33 174.732 180.354 172.024C176.328 169.283 172.259 166.522 168.363 163.558C166.199 161.918 164.066 160.189 161.796 158.705C159.768 157.378 157.576 156.436 155.539 155.131C151.161 152.335 146.215 150.875 141.396 149.306C136.362 147.679 131.469 145.9 126.673 143.542C124.364 142.408 122.009 141.368 119.669 140.322C117.2 139.22 114.876 137.851 112.599 136.351C108.201 133.471 104.016 130.24 99.4812 127.603C97.1855 126.26 94.7133 125.27 92.5244 123.733C90.4213 122.233 88.489 120.327 86.5366 118.615C84.4929 116.812 82.51 114.908 80.3312 113.274C78.2798 111.734 76.1091 110.319 74.2085 108.566C72.2448 106.747 70.6277 104.447 68.9025 102.379C67.0726 100.188 65.354 97.8937 63.7166 95.5466C60.5522 91.028 57.6681 86.3161 54.6219 81.7101C51.5205 77.0164 48.1072 72.6037 44.5836 68.2565C40.8852 63.7053 37.1351 59.1946 33.4435 54.6591C29.8499 50.2303 25.8826 45.979 22.9251 41.057C21.478 38.6289 20.1997 36.1105 18.7008 33.723C18.024 32.6376 16.6011 33.8366 17.2711 34.9064L17.2429 34.8812Z" fill="#8D9B6A"/>
<path d="M222.613 89.1109C223.818 92.8609 223.251 95.8262 221.716 99.3886C217.692 108.902 213.436 116.198 214.298 127.229C214.722 132.609 215.031 137.444 212.91 142.367C211.168 146.37 208.484 149.791 206.409 153.583C204.814 156.485 203.488 159.533 201.893 162.435C201.118 163.839 200.51 165.191 199.566 166.483C198.674 167.696 197.695 168.909 197.313 170.461C196.709 172.942 196.568 175.615 196.79 178.208C196.843 178.89 197.353 180.47 196.841 181.003C196.269 181.599 195.182 181.041 194.856 180.365C193.907 178.489 194 176.225 192.895 174.305C192.503 173.638 192.096 172.976 191.719 172.303C190.964 170.993 190.164 169.702 189.701 168.269C189.09 166.416 188.972 164.502 189.104 162.61C189.222 160.763 189.994 159.712 190.424 157.99C191.266 154.501 192.684 151.229 194.301 148.095C197.451 141.955 201.484 136.422 204.967 130.493C205.376 129.8 205.778 129.092 206.144 128.38C209.062 122.821 211.366 117.282 212.346 110.916C213.092 105.966 213.386 100.93 213.988 95.9667C214.754 89.5437 216.011 83.06 219.591 78.0349C220.003 76.2291 221.036 74.8631 223.09 74.3416C224.034 74.0885 219.897 80.4624 222.657 89.0923L222.613 89.1109Z" fill="#8D9B6A"/>
<path d="M177.685 172.424C174.891 168.344 172.287 164.146 169.85 159.859C167.634 155.961 167.023 151.4 167.814 147.098C167.88 146.735 167.932 146.415 167.952 146.183C168.466 142.595 166.909 139.069 166.438 135.509C166.057 132.637 166.773 131.346 167.186 128.918C167.599 126.489 165.531 123.851 164.943 121.494C163.64 116.166 167.371 112.141 167.624 106.914C167.924 100.718 168.244 94.2899 167.711 88.0384C170.132 91.4948 173.052 94.5907 174.755 98.5757C177.255 104.363 173.877 106.935 173.055 112.162C172.293 117.047 173.643 120.531 176.178 124.889C177.315 126.844 178.243 128.515 178.487 130.832C178.875 134.557 176.925 137.769 176.934 141.414C176.942 145.096 177.299 148.91 178.571 152.334C180.201 156.704 177.781 160.34 178.883 164.525C179.229 165.885 179.511 166.417 179.515 167.662C179.51 168.446 179.32 169.16 179.272 169.925C179.224 170.69 179.142 173.368 177.706 172.434L177.685 172.424Z" fill="#8D9B6A"/>
<path d="M197.902 180.752C193.32 179.327 188.696 178.128 184.06 177.142C179.844 176.244 175.607 177.23 172.126 179.564C171.83 179.765 171.579 179.91 171.373 180.036C168.406 181.828 164.738 181.474 161.452 182.246C158.796 182.863 157.903 184.058 155.931 185.333C153.944 186.614 150.885 185.413 148.608 185.661C143.464 186.199 141.263 191.457 136.753 193.584C131.419 196.099 125.872 198.685 120.186 200.345C124.095 201.621 127.852 203.511 131.957 203.87C137.935 204.379 138.988 200.007 143.292 197.324C147.317 194.797 150.865 194.956 155.594 196.035C157.715 196.516 159.52 196.867 161.643 196.305C165.056 195.384 167.195 192.238 170.383 190.958C173.615 189.659 177.102 188.669 180.557 188.773C184.98 188.901 187.307 185.144 191.377 184.778C192.697 184.653 193.262 184.753 194.357 184.307C195.048 184.013 195.589 183.574 196.251 183.255C196.899 182.941 199.237 181.909 197.902 180.752Z" fill="#8D9B6A"/>
<path d="M170.73 166.903C168.046 166.147 164.555 166.472 161.746 166.193C154.845 165.536 148.021 164.367 141.113 163.897C138.395 163.708 138.023 164.18 136.161 165.083C133.751 166.255 129.806 164.801 127.094 164.665C123.8 164.518 120.129 164.385 117.123 165.793C113.296 167.604 112.138 169.128 107.386 167.907C100.164 166.061 93.6842 160.841 86.339 159.599C91.5332 162.934 96.4622 166.788 101.78 169.923C104.619 171.608 108.492 174.916 111.867 175.009C115.706 175.126 120.485 174.549 124.047 173.255C126.431 172.389 128.556 171.043 131.212 171.129C134.151 171.224 136.581 173.211 139.282 174.291C143.588 176.015 146.569 173.053 150.823 172.717C153.694 172.491 156.065 172.403 158.668 171.112C160.405 170.244 161.784 169.879 163.74 169.637C165.695 169.394 166.202 168.627 167.756 168.021C168.625 167.688 170.092 167.893 170.731 166.866L170.73 166.903Z" fill="#8D9B6A"/>
<path d="M154.363 156.736C151.944 155.903 149.752 152.403 148.273 150.351C146.758 148.258 145.052 145.763 144.432 143.196C143.807 140.576 145.076 139.999 145.445 137.905C145.691 136.535 144.679 134.191 144.32 132.835C143.599 129.995 142.857 127.145 142.217 124.289C141.042 118.942 139.979 113.491 139.082 108.101C138.485 104.537 137.547 99.7788 138.23 96.2297C138.049 97.1445 138.851 97.7901 139.358 98.5989C141.078 101.331 142.402 104.194 143.745 107.142C145.3 110.54 149.246 117.576 147.491 121.189C147.041 122.126 146.396 121.804 146.506 123.433C146.62 125.191 147.829 127.265 148.663 128.791C150.358 131.868 153.236 134.815 153.466 138.498C153.649 141.548 151.493 142.819 150.892 145.346C150.416 147.354 152.56 148.845 152.889 150.939C153.084 152.159 152.266 153.457 152.559 154.58C152.84 155.634 154.547 156.192 154.385 156.746L154.363 156.736Z" fill="#8D9B6A"/>
<path d="M53.2983 155.999C53.4078 155.565 54.5861 154.253 55.1887 153.629C57.9648 150.845 61.2348 148.478 64.587 146.462C67.6136 144.623 70.9223 143.234 74.301 142.129C76.1814 141.513 78.4259 140.448 80.4531 140.415C81.7751 140.405 82.992 141.122 84.2876 141.456C87.5266 142.289 91.0122 143.128 94.2933 143.373C99.5443 143.774 103.859 139.544 109.361 141.092C111.526 141.7 113.511 142.864 115.728 143.432C117.383 143.87 119.094 143.954 120.713 144.389C124.246 145.337 129.553 145.991 132.415 148.698C128.071 146.842 122.998 147.176 119.037 149.155C116.17 150.596 113.312 147.574 110.339 146.387C106.292 144.774 103.237 145.981 99.9773 148.251C96.7112 150.506 94.9189 152.982 90.8483 151.839C86.9145 150.73 85.1375 149.201 81.5094 151.426C79.2759 152.799 77.1987 154.696 74.3843 154.603C71.9614 154.528 69.6525 153.263 67.196 153.11C63.7902 152.9 61.1945 154.041 58.0757 154.98C56.7032 155.398 55.2726 155.398 53.2916 155.983L53.2983 155.999Z" fill="#8D9B6A"/>
<path d="M133.678 148.144C127.074 143.88 120.324 138.356 120.109 129.886C120.049 127.455 120.418 125.008 119.187 122.721C117.702 119.966 114.794 118.708 112.845 116.448C108.643 111.59 111.579 104.943 111.157 99.297C110.688 93.0191 105.868 89.2246 102.754 84.1464C105.67 86.1078 110.032 88.6821 111.723 92.1138C113.086 94.866 112.099 98.338 113.423 101.162C114.29 103.009 116.049 104.345 117.078 106.123C118.424 108.435 118.381 109.905 118.72 112.422C119.489 118.107 124.905 118.168 127.239 122.647C129.162 126.334 127.672 131.862 128.786 135.93C129.376 138.062 130.696 140.032 131.745 142.098C132.966 144.483 132.25 147.132 133.67 148.166L133.678 148.144Z" fill="#8D9B6A"/>
<path d="M72.9678 109.857C67.9424 104.449 63.0151 98.0538 64.4115 91.7685C64.8167 89.9647 65.5941 88.3178 64.936 86.2062C64.1516 83.6848 61.8109 81.7512 60.5127 79.4112C57.7248 74.405 61.5437 70.5562 62.2265 66.2614C62.9823 61.5091 59.4466 57.0434 57.646 52.2475C59.8414 54.7064 63.2151 58.0917 64.0798 61.1907C64.7656 63.6798 63.2472 65.8829 63.8827 68.412C64.2951 70.0719 65.6017 71.6482 66.1841 73.31C66.9265 75.46 66.6283 76.5322 66.4607 78.4945C66.0727 82.9234 70.8435 84.8432 72.0636 88.9219C73.0787 92.2907 70.7257 95.8127 70.9473 99.1852C71.067 100.951 71.8712 102.852 72.4136 104.735C73.0424 106.896 71.9167 108.598 72.9821 109.851L72.9678 109.857Z" fill="#8D9B6A"/>
<path d="M39.3996 135.576C45.7351 131.101 53.154 127.683 60.1475 124.409C62.2897 123.404 65.0681 121.454 67.4121 121.319C71.1761 121.087 75.4166 123.651 79.2855 124.105C81.1911 124.325 82.3433 123.648 84.0659 123.646C87.9618 123.639 92.1179 126.37 95.6434 127.964C97.417 128.765 99.6789 129.247 101.179 130.464C95.4878 129.417 89.8412 128.313 84.1704 127.032C82.5668 126.665 80.3956 125.788 78.7954 125.832C78.0027 125.85 77.3279 126.343 76.6162 126.59C74.7164 127.229 72.6546 127.412 70.7822 128.115C69.196 128.715 67.9446 129.565 66.6177 130.523C65.4614 131.353 64.1974 132.134 62.7596 132.352C61.4679 132.545 60.2429 131.885 59.0131 131.939C57.216 132.01 55.6089 132.843 53.6127 133.018C50.5817 133.294 48.2807 135.06 45.411 135.55C43.7753 135.833 41.9727 135.569 40.3037 135.735C40.4624 135.78 40.6211 135.825 39.4064 135.592L39.3996 135.576Z" fill="#8D9B6A"/>
<path d="M106.146 133.786C104.614 134.213 102.978 131.618 101.883 130.514C99.4543 128.032 96.8158 125.939 94.7622 122.774C93.0693 120.167 91.9912 116.756 90.306 114.126C86.9425 108.883 82.6357 104.676 80.1284 98.115C84.4424 101.384 89.5777 103.294 93.7464 106.942C96.2603 109.145 98.439 113.116 100.234 116.596C101.96 119.956 102.544 124.569 104.44 127.688C105.284 129.086 106.274 131.058 106.161 133.779L106.146 133.786Z" fill="#8D9B6A"/>
<path d="M74.162 111.521C73.3484 109.957 69.9486 109.664 68.3938 109.513C66.6005 109.33 64.9051 108.653 63.1281 108.388C60.6581 108.002 60.4356 108.89 58.5863 109.941C56.23 111.302 53.313 109.16 50.9107 108.329C49.4219 107.809 47.345 107.01 45.8345 107.482C44.7104 107.847 44.7324 108.499 44.0407 109.304C42.4862 111.118 38.3912 109.816 36.0246 109.67C30.4227 109.33 26.8527 109.204 21.3518 107.895C25.5352 110.123 29.8711 111.02 34.2769 112.36C36.5087 113.036 38.2357 113.266 40.3024 112.878C42.9949 112.376 45.0209 111.533 47.6006 112.534C50.6548 113.711 53.2753 113.844 56.3087 113.329C57.822 113.064 59.0742 112.475 60.6478 112.429C62.7147 112.363 62.8807 112.065 64.452 111.132C67.0518 109.573 71.4737 110.509 74.4371 110.874C74.5344 111.06 74.2462 111.315 74.1473 111.527L74.162 111.521Z" fill="#8D9B6A"/>
<path d="M56.6137 89.5034C56.8459 89.4047 57.2135 89.6193 56.9504 89.2489C54.9288 87.7899 53.7935 85.9169 51.1748 85.3425C49.3193 84.9444 46.0696 85.1764 44.3271 85.398C42.426 85.65 40.4588 87.34 38.3944 86.6968C35.4042 85.7796 33.9 81.2623 30.8664 80.0853C27.2079 78.6547 24.2552 82.6373 20.9095 83.5222C17.1662 84.5206 13.3674 82.9641 9.85213 81.2685C13.0306 83.4969 16.2131 85.297 19.8011 86.4052C21.5094 86.9401 23.1056 87.3742 24.8297 87.0305C25.984 86.7994 27.2526 85.4807 28.2675 85.3644C30.2895 85.1537 31.006 86.8525 32.6929 88.2127C34.8015 89.9129 37.3534 90.8496 39.8882 90.2353C41.6288 89.8104 42.162 89.1756 44.0049 89.5048C46.0693 89.8697 47.1663 90.4605 49.2329 89.9155C51.1989 89.3762 55.0276 87.581 56.6214 89.4816L56.6137 89.5034Z" fill="#8D9B6A"/>
<path d="M25.3917 45.3148C21.044 42.9384 14.1295 40.3564 11.5908 35.8208C10.7445 34.3089 10.4055 32.0995 9.8116 30.4802C8.84306 27.8714 7.51684 25.4517 7.16113 22.6748C6.1919 15.3033 7.22186 5.56199 0.772705 0.354309C3.69852 2.40877 6.59477 4.67967 8.93921 7.46323C11.0728 10.0029 11.0157 11.2133 10.8694 14.3333C10.5633 20.5422 13.9068 23.4012 17.3934 28.0156C18.9029 30.0052 20.3351 31.4903 20.4705 33.879C20.5854 36.017 20.4678 37.6979 21.2321 39.8747C22.0371 42.1454 23.9823 43.5977 25.3849 45.2992L25.3917 45.3148Z" fill="#8D9B6A"/>
<path d="M50.7677 78.7296C49.6621 75.5397 45.934 72.8115 44.3959 69.5255C42.5709 65.6145 44.7797 62.6209 45.3536 58.7541C46.5118 50.848 44.0303 42.6224 41.6052 35.1571C46.6949 39.267 49.4443 47.9949 50.2977 54.2612C50.8694 58.5371 48.2098 61.2742 49.087 65.5883C49.3532 66.913 49.8729 67.6443 49.6757 68.998C49.4784 70.3518 48.1025 71.8893 48.3733 73.3428C48.6576 74.8278 50.4878 75.9168 50.9484 77.4949C51.1885 78.3265 51.0502 79.5805 50.7752 78.7077L50.7677 78.7296Z" fill="#8D9B6A"/>
<path d="M35.2043 57.4436C33.1518 56.0089 30.1035 48.6103 29.7933 46.3607C29.1871 42.0219 26.4264 38.2669 25.6784 34.0252C25.1583 31.0342 25.4938 28.6209 24.2363 25.6666C23.3 23.4987 21.9047 21.9692 20.5526 20.1997C24.7156 23.1183 29.1749 26.7231 29.6632 31.9798C30.0692 36.2377 31.6833 39.4649 33.6155 43.2583C34.965 45.9151 34.8073 49.8035 35.2364 52.7963C35.4821 54.5563 35.6672 56.176 35.1975 57.428L35.2043 57.4436Z" fill="#8D9B6A"/>
<path d="M40.7928 65.9345C36.1587 62.7477 31.1062 62.5435 26.0654 63.125C19.9545 63.8227 14.366 57.7476 9.3769 54.2976C11.3929 57.1296 14.7343 59.718 17.2719 62.1212C18.3318 63.1387 19.5736 64.4176 20.8562 65.1522C22.3599 65.9997 24.0908 66.0165 25.7226 66.2826C27.2824 66.5416 28.9855 67.1725 30.5426 67.2256C31.732 67.2656 39.5092 65.9158 40.8074 65.9284L40.7928 65.9345Z" fill="#8D9B6A"/>
</svg>
